<?xml version="1.0" encoding="utf-8"?>
<!-- Generator: Adobe Illustrator 24.1.1, SVG Export Plug-In . SVG Version: 6.00 Build 0)  -->
<svg version="1.1" id="Layer_1" xmlns="http://www.w3.org/2000/svg" xmlns:xlink="http://www.w3.org/1999/xlink" x="0px" y="0px"
	 viewBox="0 0 162.24 119.65" style="enable-background:new 0 0 162.24 119.65;" xml:space="preserve">
<style type="text/css">
	.st0{display:none;fill:#010100;}
	.st1{fill:#EA001B;}
	.st2{fill:#F69D1B;}
	.st3{fill:#FE5F00;}
	.st4{fill:#F3F3F3;}
</style>
<g>
	<path class="st0" d="M-10.07,0.7c61.31,0,122.62,0,184.01,0c0,38.8,0,77.6,0,116.4c-0.4,0-0.8-0.01-1.2-0.01
		c-60.45,0-120.91,0-181.36-0.01c-0.46,0-0.95,0.13-1.45-0.14C-10.07,78.2-10.07,39.45-10.07,0.7z M82.15,79.93
		c0.37,0.3,0.73,0.62,1.12,0.9c14.22,10.17,33.28,9.82,47.09-0.86c16.44-12.71,20.27-36.27,8.35-53.26
		c-9.17-13.07-22.01-18.6-37.85-16.83c-6.95,0.78-13.22,3.53-18.72,7.9c-0.12,0.02-0.24,0.05-0.36,0.07
		c-0.21-0.18-0.41-0.38-0.63-0.55C67.94,7.18,48.49,6.86,35,16.62c-9.9,7.17-15.61,16.85-16.59,29.06
		C17.43,57.89,21.4,68.45,30.15,77c9.07,8.87,20.12,12.35,32.68,10.85c7.05-0.84,13.38-3.55,18.95-7.98
		C81.9,79.89,82.02,79.91,82.15,79.93z M26.99,107.97c0-2.03,0-3.98,0-5.92c0-1.21,0.4-2.21,1.63-2.64c1.8-0.64,3.22,0.32,3.28,2.26
		c0.06,2.1,0.01,4.19,0.01,6.27c0.83,0,1.48,0,2.18,0c0-0.44,0-0.8,0-1.15c0-1.51-0.02-3.03,0.01-4.54
		c0.02-1.11,0.26-2.16,1.38-2.72c1.75-0.88,3.49,0.08,3.57,2.07c0.09,2.1,0.02,4.21,0.02,6.35c0.8,0.13,1.45,0.14,2.15,0.01
		c0-2.43,0.07-4.82-0.02-7.2c-0.07-1.8-1.25-2.99-3.02-3.37c-1.84-0.39-3.37,0.13-4.56,1.58c-2.42-2.13-4.06-2.26-6.55-0.53
		c-0.09-0.3-0.17-0.59-0.24-0.84c-0.68,0-1.3,0-1.95,0c0,3.5,0,6.92,0,10.35C25.55,108.08,26.18,108.02,26.99,107.97z
		 M137.39,107.96c0.73,0,1.35,0,1.98,0c0-4.9,0-9.73,0-14.58c-0.71,0-1.33,0-2.05,0c0,0.88,0.03,1.71-0.01,2.54
		c-0.04,0.84,0.17,1.7-0.14,2.57c-2.15-1.54-4.26-1.63-6.17-0.31c-1.86,1.3-2.84,3.96-1.97,6.3c1.56,4.19,4.51,4.66,8.22,2.72
		C137.3,107.38,137.34,107.64,137.39,107.96z M116.25,107.93c0.79,0,1.41,0,2.03,0c0-3.5,0-6.91,0-10.34c-0.69-0.16-1.31-0.1-2-0.04
		c-0.06,0.29-0.11,0.57-0.17,0.88c-2.82-1.72-5.41-1.46-7.22,0.67c-1.72,2.03-1.65,5.5,0.15,7.51c1.79,2,4.48,2.2,7.09,0.46
		C116.17,107.38,116.21,107.67,116.25,107.93z M51.87,98.55c-1.94-1.61-3.93-1.73-5.9-0.58c-2.07,1.22-2.98,3.26-2.49,5.52
		c1.08,4.93,4.15,5.79,8.44,3.71c0.03,0.2,0.07,0.47,0.1,0.73c0.69,0,1.35,0,1.98,0c0-3.52,0-6.95,0-10.49
		C53.21,97.77,52.01,96.82,51.87,98.55z M87.26,103.66c0.41-2.52-0.54-4.74-2.4-5.8c-1.69-0.96-4.12-0.77-5.63,0.45
		c-2.34,1.89-2.64,6-0.61,8.29c1.96,2.21,5.98,2.3,8.25,0.12c-0.33-0.46-0.67-0.93-0.99-1.39c-3.61,1.6-5.99,0.96-6.17-1.67
		C82.2,103.66,84.7,103.66,87.26,103.66z M65.46,98.34c-2.1-1.09-4.13-1.41-6.26-0.8c-1.04,0.3-1.85,0.95-2.19,2.03
		c-0.54,1.73,0.18,3.18,1.98,3.75c1.02,0.32,2.11,0.4,3.15,0.66c0.57,0.14,1.24,0.35,1.2,1.11c-0.03,0.71-0.65,0.95-1.24,1.11
		c-0.3,0.08-0.63,0.09-0.94,0.12c-1.35,0.11-2.57-0.34-3.72-1c-0.43,0.51-0.76,1-1.02,1.68c2.19,1.38,4.53,1.65,6.96,0.87
		c1.54-0.49,2.29-1.7,2.22-3.18c-0.07-1.4-0.81-2.25-2.45-2.68c-1-0.26-2.04-0.36-3.04-0.6c-0.46-0.11-0.94-0.34-0.96-0.93
		c-0.02-0.61,0.4-0.92,0.92-1.11c0.61-0.22,1.24-0.25,1.88-0.14c0.86,0.15,1.67,0.44,2.52,0.83C64.8,99.48,65.09,98.97,65.46,98.34z
		 M75.11,105.65c-0.62,0.23-1.17,0.47-1.78,0.49c-0.99,0.04-1.68-0.34-1.71-1.38c-0.05-1.74-0.01-3.49-0.01-5.35
		c1.31,0,2.52,0,3.85,0c-0.16-0.69,0.12-1.29-0.26-1.93c-1.17,0-2.34,0-3.62,0c0-1.07,0-2.05,0-3.07c-0.76,0-1.41,0-2.15,0
		c0,1.04,0,2.02,0,3.11c-0.75,0-1.41,0-2.07,0c-0.18,0.68-0.16,1.26-0.04,1.89c0.68,0.03,1.34,0.06,2.12,0.1
		c0,1.65-0.01,3.23,0,4.81c0.02,3.11,1.35,4.28,4.4,3.91C75.86,107.97,76.05,107.6,75.11,105.65z M106.42,98.57
		c-2.58-1.99-6.24-1.67-8.09,0.6c-1.8,2.21-1.51,5.98,0.59,7.84c1.99,1.75,5.7,1.71,7.44-0.1c-0.36-0.5-0.6-1.09-1.09-1.48
		c-2.35,1.21-3.86,1.12-5.06-0.24c-1.03-1.17-1.14-3.26-0.21-4.57c0.42-0.6,0.98-1.04,1.7-1.25c1.32-0.38,2.49,0.1,3.65,0.77
		C105.72,99.59,106.05,99.1,106.42,98.57z M89.92,97.57c0,3.52,0,6.97,0,10.38c0.72,0,1.34,0,1.91,0c0.08-0.1,0.13-0.13,0.13-0.16
		c0.01-1.83,0.01-3.67,0.03-5.5c0.02-2.41,0.95-3.2,3.37-2.88c0.11,0.01,0.23-0.01,0.39-0.02c0.21-0.59,0.41-1.18,0.63-1.8
		c-1.67-0.68-3.04-0.34-4.25,0.82C91.82,97.42,91.82,97.42,89.92,97.57z M123.61,107.97c0-2.13-0.03-4.13,0.01-6.12
		c0.04-1.86,1-2.68,2.83-2.52c0.27,0.02,0.54,0.07,0.87,0.11c0.23-0.64,0.58-1.21,0.59-1.88c-1.64-0.65-3-0.24-4.2,0.82
		c-0.37-1.48-1.42-0.66-2.2-0.85c0,3.55,0,7,0,10.44C122.23,107.97,122.85,107.97,123.61,107.97z"/>
	<path class="st1" d="M81.78,79.87c-5.57,4.43-11.9,7.14-18.95,7.98c-12.56,1.5-23.6-1.99-32.68-10.85
		c-8.75-8.55-12.72-19.11-11.73-31.31C19.4,33.47,25.1,23.79,35,16.62c13.48-9.76,32.93-9.44,46.14,0.68
		c0.22,0.17,0.42,0.37,0.63,0.55c-0.23,0.27-0.43,0.58-0.71,0.8c-2.13,1.7-4.03,3.65-5.68,5.8c-6.81,8.86-9.6,18.84-8.07,29.94
		c1.33,9.63,5.81,17.61,13.01,24.09C80.83,78.92,81.48,79.21,81.78,79.87z"/>
	<path class="st2" d="M82.14,17.78c5.5-4.38,11.77-7.12,18.72-7.9c15.84-1.77,28.68,3.76,37.85,16.83
		c11.92,16.99,8.08,40.55-8.35,53.26C116.54,90.65,97.48,91,83.26,80.83c-0.39-0.28-0.74-0.6-1.12-0.89
		c0.04-0.4,0.32-0.64,0.59-0.86c3.16-2.61,5.82-5.64,8.03-9.09c4.17-6.48,6.13-13.61,6.19-21.25c0.03-3-0.36-6.01-1.08-8.97
		c-1.97-8.11-6.14-14.88-12.27-20.49C83.1,18.8,82.34,18.56,82.14,17.78z"/>
	<path class="st3" d="M82.14,17.78c0.2,0.78,0.96,1.02,1.48,1.5c6.13,5.61,10.3,12.38,12.27,20.49c0.72,2.95,1.1,5.96,1.08,8.97
		c-0.07,7.63-2.03,14.77-6.19,21.25c-2.22,3.45-4.88,6.48-8.03,9.09c-0.28,0.23-0.56,0.47-0.59,0.86c-0.12-0.02-0.25-0.04-0.37-0.06
		c-0.3-0.65-0.95-0.95-1.45-1.4c-7.2-6.48-11.68-14.46-13.01-24.09c-1.53-11.09,1.26-21.08,8.07-29.94c1.65-2.15,3.55-4.09,5.68-5.8
		c0.27-0.22,0.47-0.53,0.71-0.8C81.89,17.82,82.02,17.8,82.14,17.78z"/>
	<path class="st4" d="M26.99,107.97c-0.82,0.05-1.44,0.12-2.11-0.04c0-3.44,0-6.86,0-10.35c0.65,0,1.27,0,1.95,0
		c0.07,0.25,0.15,0.54,0.24,0.84c2.49-1.73,4.13-1.6,6.55,0.53c1.19-1.45,2.72-1.98,4.56-1.58c1.77,0.38,2.95,1.57,3.02,3.37
		c0.1,2.38,0.02,4.78,0.02,7.2c-0.7,0.13-1.35,0.12-2.15-0.01c0-2.14,0.07-4.25-0.02-6.35c-0.08-1.99-1.82-2.94-3.57-2.07
		c-1.12,0.56-1.36,1.61-1.38,2.72c-0.03,1.51-0.01,3.03-0.01,4.54c0,0.36,0,0.71,0,1.15c-0.71,0-1.36,0-2.18,0
		c0-2.08,0.05-4.17-0.01-6.27c-0.05-1.94-1.48-2.9-3.28-2.26c-1.23,0.44-1.63,1.43-1.63,2.64
		C26.99,103.99,26.99,105.94,26.99,107.97z"/>
	<path class="st4" d="M137.39,107.96c-0.05-0.31-0.1-0.57-0.13-0.77c-3.71,1.95-6.66,1.48-8.22-2.72c-0.87-2.34,0.11-5,1.97-6.3
		c1.9-1.32,4.02-1.23,6.17,0.31c0.31-0.86,0.1-1.73,0.14-2.57c0.04-0.83,0.01-1.65,0.01-2.54c0.72,0,1.35,0,2.05,0
		c0,4.85,0,9.68,0,14.58C138.74,107.96,138.12,107.96,137.39,107.96z M131.01,102.74c-0.01,2.07,1.32,3.55,3.21,3.56
		c1.86,0.01,3.25-1.52,3.23-3.56c-0.02-2.01-1.35-3.48-3.16-3.51C132.4,99.2,131.02,100.68,131.01,102.74z"/>
	<path class="st4" d="M116.25,107.93c-0.04-0.27-0.08-0.55-0.12-0.87c-2.61,1.74-5.3,1.54-7.09-0.46c-1.8-2.01-1.87-5.48-0.15-7.51
		c1.81-2.14,4.4-2.39,7.22-0.67c0.06-0.3,0.11-0.58,0.17-0.88c0.69-0.06,1.32-0.11,2,0.04c0,3.43,0,6.84,0,10.34
		C117.66,107.93,117.04,107.93,116.25,107.93z M109.89,102.78c0,2.08,1.34,3.53,3.23,3.52c1.84-0.01,3.13-1.43,3.15-3.48
		c0.02-2.1-1.29-3.59-3.17-3.59C111.22,99.23,109.89,100.69,109.89,102.78z"/>
	<path class="st4" d="M51.87,98.55c0.14-1.73,1.33-0.78,2.14-1.1c0,3.53,0,6.97,0,10.49c-0.64,0-1.29,0-1.98,0
		c-0.04-0.26-0.08-0.53-0.1-0.73c-4.28,2.09-7.36,1.22-8.44-3.71c-0.49-2.26,0.42-4.3,2.49-5.52
		C47.94,96.82,49.93,96.94,51.87,98.55z M52.04,102.79c0.01-2.09-1.33-3.58-3.2-3.56c-1.89,0.02-3.21,1.49-3.19,3.57
		c0.02,2.02,1.31,3.45,3.15,3.49C50.69,106.34,52.04,104.88,52.04,102.79z"/>
	<path class="st4" d="M87.26,103.66c-2.56,0-5.06,0-7.57,0c0.18,2.63,2.56,3.27,6.17,1.67c0.33,0.46,0.66,0.93,0.99,1.39
		c-2.26,2.18-6.28,2.09-8.25-0.12c-2.03-2.29-1.73-6.4,0.61-8.29c1.51-1.22,3.94-1.41,5.63-0.45
		C86.72,98.92,87.68,101.14,87.26,103.66z M79.62,101.78c1.81,0,3.61,0,5.41,0c-0.18-1.62-1.02-2.47-2.48-2.55
		C80.99,99.15,79.95,100.04,79.62,101.78z"/>
	<path class="st4" d="M65.46,98.34c-0.36,0.64-0.65,1.14-0.99,1.72c-0.84-0.39-1.66-0.68-2.52-0.83c-0.65-0.11-1.27-0.08-1.88,0.14
		c-0.52,0.19-0.93,0.5-0.92,1.11c0.02,0.59,0.5,0.82,0.96,0.93c1.01,0.23,2.04,0.34,3.04,0.6c1.64,0.42,2.38,1.28,2.45,2.68
		c0.08,1.48-0.68,2.68-2.22,3.18c-2.43,0.78-4.76,0.51-6.96-0.87c0.26-0.68,0.59-1.16,1.02-1.68c1.15,0.67,2.36,1.11,3.72,1
		c0.32-0.03,0.64-0.04,0.94-0.12c0.59-0.16,1.21-0.4,1.24-1.11c0.03-0.76-0.63-0.97-1.2-1.11c-1.04-0.25-2.13-0.33-3.15-0.66
		c-1.8-0.57-2.52-2.02-1.98-3.75c0.34-1.08,1.15-1.73,2.19-2.03C61.33,96.93,63.36,97.24,65.46,98.34z"/>
	<path class="st4" d="M75.11,105.65c0.95,1.95,0.75,2.32-1.27,2.57c-3.05,0.37-4.38-0.8-4.4-3.91c-0.01-1.58,0-3.16,0-4.81
		c-0.79-0.04-1.45-0.07-2.12-0.1c-0.12-0.63-0.15-1.21,0.04-1.89c0.66,0,1.32,0,2.07,0c0-1.08,0-2.06,0-3.11c0.74,0,1.4,0,2.15,0
		c0,1.03,0,2,0,3.07c1.28,0,2.46,0,3.62,0c0.38,0.64,0.1,1.24,0.26,1.93c-1.33,0-2.54,0-3.85,0c0,1.86-0.04,3.61,0.01,5.35
		c0.03,1.04,0.73,1.42,1.71,1.38C73.94,106.12,74.49,105.88,75.11,105.65z"/>
	<path class="st4" d="M106.42,98.57c-0.36,0.53-0.69,1.02-1.07,1.57c-1.16-0.67-2.33-1.15-3.65-0.77c-0.72,0.21-1.28,0.65-1.7,1.25
		c-0.92,1.31-0.82,3.4,0.21,4.57c1.21,1.37,2.71,1.45,5.06,0.24c0.49,0.39,0.73,0.98,1.09,1.48c-1.75,1.81-5.45,1.85-7.44,0.1
		c-2.11-1.86-2.39-5.63-0.59-7.84C100.18,96.89,103.84,96.58,106.42,98.57z"/>
	<path class="st4" d="M89.92,97.57c1.9-0.15,1.9-0.15,2.21,0.84c1.21-1.16,2.59-1.49,4.25-0.82c-0.22,0.62-0.43,1.21-0.63,1.8
		c-0.16,0.01-0.28,0.03-0.39,0.02c-2.43-0.31-3.35,0.47-3.37,2.88c-0.02,1.83-0.02,3.67-0.03,5.5c0,0.03-0.05,0.06-0.13,0.16
		c-0.57,0-1.19,0-1.91,0C89.92,104.54,89.92,101.1,89.92,97.57z"/>
	<path class="st4" d="M123.61,107.97c-0.76,0-1.38,0-2.09,0c0-3.45,0-6.89,0-10.44c0.78,0.19,1.82-0.63,2.2,0.85
		c1.19-1.05,2.56-1.47,4.2-0.82c-0.02,0.67-0.36,1.24-0.59,1.88c-0.33-0.04-0.6-0.08-0.87-0.11c-1.83-0.16-2.79,0.66-2.83,2.52
		C123.57,103.84,123.61,105.83,123.61,107.97z"/>
	<path class="st0" d="M131.01,102.74c0.01-2.06,1.39-3.54,3.27-3.51c1.82,0.03,3.14,1.5,3.16,3.51c0.02,2.04-1.36,3.57-3.23,3.56
		C132.33,106.29,131,104.81,131.01,102.74z"/>
	<path class="st0" d="M109.89,102.78c0-2.09,1.33-3.55,3.22-3.54c1.88,0,3.19,1.49,3.17,3.59c-0.02,2.04-1.32,3.47-3.15,3.48
		C111.23,106.31,109.89,104.85,109.89,102.78z"/>
	<path class="st0" d="M52.04,102.79c-0.01,2.09-1.36,3.55-3.24,3.51c-1.84-0.04-3.13-1.47-3.15-3.49c-0.02-2.08,1.3-3.56,3.19-3.57
		C50.72,99.21,52.05,100.69,52.04,102.79z"/>
	<path class="st0" d="M79.62,101.78c0.33-1.75,1.38-2.63,2.93-2.55c1.46,0.08,2.3,0.93,2.48,2.55
		C83.23,101.78,81.43,101.78,79.62,101.78z"/>
</g>
</svg>
